<?xml version="1.0" encoding="UTF-8"?>
<svg xmlns="http://www.w3.org/2000/svg" xmlns:xlink="http://www.w3.org/1999/xlink" width="3000" height="3000" viewBox="0 0 3000 3000">
<path fill-rule="evenodd" fill="rgb(0%, 70.117188%, 53.709412%)" fill-opacity="1" d="M 1500 0.0117188 C 2328.429688 0.0117188 2999.988281 671.570312 2999.988281 1500 C 2999.988281 2328.425781 2328.429688 2999.996094 1500 2999.996094 C 671.574219 2999.996094 0.00390625 2328.425781 0.00390625 1500 C 0.00390625 671.570312 671.574219 0.0117188 1500 0.0117188 "/>
<path fill-rule="evenodd" fill="rgb(100%, 100%, 100%)" fill-opacity="1" d="M 1731.53125 2460.035156 L 1156.839844 2460.035156 L 1155.980469 2460.015625 C 1146.339844 2459.726562 1139.96875 2454.578125 1136.859375 2447.859375 L 1136.800781 2447.738281 L 1136.789062 2447.738281 C 1135.230469 2444.675781 1134.339844 2441.199219 1134.339844 2437.535156 L 1134.339844 1961.761719 C 993.566406 1804.261719 933.253906 1654.890625 955.128906 1517.230469 C 968.539062 1431.980469 1015.261719 1354.429688 1089.101562 1292.539062 C 1066.261719 1345 1053.570312 1402.871094 1053.570312 1463.640625 L 1053.570312 1493.949219 C 1053.570312 1620.730469 1156.769531 1723.941406 1283.558594 1723.941406 L 1684.03125 1723.941406 C 1810.910156 1723.941406 1913.871094 1620.800781 1913.871094 1493.949219 L 1913.871094 1463.640625 C 1913.871094 1400.628906 1900.261719 1340.761719 1875.839844 1286.789062 C 1940.230469 1351.660156 1991.460938 1451.429688 1981.058594 1603.320312 C 1978.398438 1642.378906 2054.179688 1752.691406 2101.210938 1798.628906 C 2166.480469 1862.238281 2101.089844 1928.851562 2021.519531 1937.691406 C 2021.519531 2013.890625 2032.03125 2156.882812 1982.300781 2206.90625 C 1967.308594 2221.910156 1948.710938 2229.410156 1926.839844 2229.410156 L 1753.871094 2229.410156 L 1753.871094 2437.535156 C 1754.019531 2449.878906 1743.871094 2460.035156 1731.53125 2460.035156 "/>
<path fill-rule="evenodd" fill="rgb(100%, 100%, 100%)" fill-opacity="1" d="M 1684.03125 1686.441406 L 1283.558594 1686.441406 C 1177.46875 1686.441406 1091.058594 1600.039062 1091.058594 1493.949219 L 1091.058594 1463.640625 C 1091.058594 1443.128906 1092.648438 1423 1095.699219 1403.328125 L 1237.558594 1403.328125 C 1256.53125 1420.941406 1284.511719 1449.109375 1297.941406 1449.109375 C 1318.710938 1449.109375 1328.410156 1423.570312 1312.941406 1409.890625 L 1280.71875 1381.371094 C 1292.410156 1371.019531 1304.238281 1359.300781 1312.78125 1351.761719 C 1334.730469 1332.378906 1305.269531 1298.421875 1282.941406 1318.171875 L 1237.570312 1358.328125 L 1105.429688 1358.328125 C 1151.570312 1192.851562 1303.648438 1070.980469 1483.71875 1070.980469 C 1677.160156 1070.980469 1838.300781 1211.488281 1870.5 1395.828125 L 1746.890625 1395.828125 C 1744.101562 1384.800781 1740.109375 1370.289062 1734.960938 1350.828125 C 1731.839844 1338.800781 1719.488281 1331.609375 1707.460938 1334.890625 C 1678.71875 1342.539062 1695.710938 1377.910156 1704.03125 1408.800781 C 1690.121094 1419.109375 1667.929688 1437.390625 1647.621094 1462.699219 C 1635.679688 1477.429688 1646.78125 1499.261719 1665.121094 1499.261719 C 1671.679688 1499.261719 1678.25 1496.449219 1682.460938 1490.980469 C 1707.089844 1459.730469 1724.808594 1447.878906 1736.160156 1440.828125 L 1875.691406 1440.828125 C 1876.121094 1448.378906 1876.371094 1455.980469 1876.371094 1463.640625 L 1876.371094 1493.949219 C 1876.371094 1511.691406 1873.949219 1528.871094 1869.449219 1545.191406 L 1720.589844 1545.191406 C 1691.011719 1545.191406 1691.011719 1590.191406 1720.589844 1590.191406 L 1850.578125 1590.191406 C 1817.289062 1647.71875 1755.121094 1686.441406 1684.03125 1686.441406 Z M 1414.03125 1381.761719 C 1380.851562 1381.761719 1346.101562 1379.300781 1352.308594 1350.988281 C 1361.730469 1308.039062 1426.609375 1367.289062 1515.269531 1308.488281 C 1574.011719 1269.53125 1569.160156 1213.910156 1603.078125 1230.519531 C 1635.96875 1246.621094 1596.070312 1296 1564.878906 1325.570312 C 1591.21875 1346.898438 1627.398438 1385.859375 1622.148438 1435.828125 C 1620.898438 1447.390625 1611.058594 1455.980469 1599.808594 1455.980469 C 1586.5 1455.980469 1576.011719 1444.351562 1577.460938 1431.140625 C 1580.851562 1399.039062 1549.039062 1368.898438 1527.808594 1353.738281 C 1487.210938 1376.488281 1444.78125 1381.761719 1414.03125 1381.761719 Z M 1552.621094 1667.699219 C 1523.039062 1667.699219 1523.039062 1622.699219 1552.621094 1622.699219 C 1623.890625 1622.699219 1623.660156 1514.421875 1552.621094 1514.421875 L 1317.46875 1514.421875 C 1287.878906 1514.421875 1287.769531 1469.421875 1317.46875 1469.421875 L 1354.808594 1469.421875 L 1354.710938 1469.171875 L 1354.601562 1468.929688 L 1354.550781 1468.800781 L 1354.488281 1468.679688 L 1354.390625 1468.429688 L 1354.28125 1468.191406 L 1354.171875 1467.941406 L 1354.058594 1467.691406 L 1353.960938 1467.441406 L 1353.949219 1467.421875 L 1353.851562 1467.191406 L 1353.738281 1466.941406 L 1353.640625 1466.691406 L 1353.421875 1466.191406 L 1353.351562 1466.019531 L 1353.308594 1465.941406 L 1353.199219 1465.699219 L 1353.089844 1465.441406 L 1352.980469 1465.199219 L 1352.871094 1464.941406 L 1352.769531 1464.699219 L 1352.738281 1464.621094 L 1352.660156 1464.441406 L 1352.441406 1463.941406 L 1352.328125 1463.691406 L 1352.21875 1463.441406 L 1352.121094 1463.21875 L 1352.109375 1463.191406 L 1351.890625 1462.691406 L 1351.769531 1462.429688 L 1351.550781 1461.929688 L 1351.5 1461.820312 L 1351.441406 1461.679688 L 1351.328125 1461.429688 L 1351.21875 1461.171875 L 1351.109375 1460.921875 L 1350.988281 1460.671875 L 1350.878906 1460.421875 L 1350.878906 1460.398438 L 1350.769531 1460.160156 L 1350.648438 1459.910156 L 1350.539062 1459.660156 L 1350.429688 1459.398438 L 1350.308594 1459.148438 L 1350.238281 1458.988281 L 1350.199219 1458.898438 L 1350.078125 1458.648438 L 1349.96875 1458.390625 L 1349.859375 1458.140625 L 1349.738281 1457.890625 L 1349.628906 1457.628906 L 1349.601562 1457.570312 L 1349.511719 1457.378906 L 1349.390625 1457.128906 L 1349.28125 1456.871094 L 1349.160156 1456.621094 L 1349.050781 1456.371094 L 1348.949219 1456.160156 L 1348.929688 1456.109375 L 1348.808594 1455.859375 L 1348.691406 1455.609375 L 1348.578125 1455.351562 L 1348.460938 1455.101562 L 1348.339844 1454.851562 L 1348.289062 1454.738281 L 1348.21875 1454.589844 L 1348.101562 1454.339844 L 1347.980469 1454.089844 L 1347.859375 1453.828125 L 1347.738281 1453.578125 L 1347.628906 1453.328125 C 1334.878906 1426.429688 1375.609375 1407.289062 1388.25 1433.949219 L 1388.511719 1434.5 L 1388.78125 1435.050781 L 1388.941406 1435.398438 L 1389.039062 1435.609375 L 1389.308594 1436.148438 L 1389.578125 1436.710938 L 1389.640625 1436.851562 L 1389.851562 1437.261719 L 1390.121094 1437.820312 L 1390.359375 1438.308594 L 1390.398438 1438.371094 L 1390.671875 1438.929688 L 1390.949219 1439.480469 L 1391.089844 1439.761719 L 1391.230469 1440.039062 L 1391.511719 1440.601562 L 1391.789062 1441.160156 L 1391.828125 1441.230469 L 1392.078125 1441.710938 L 1392.359375 1442.269531 L 1392.578125 1442.699219 L 1392.648438 1442.828125 L 1392.929688 1443.390625 L 1393.21875 1443.949219 L 1393.328125 1444.160156 L 1393.511719 1444.511719 L 1393.800781 1445.070312 L 1394.089844 1445.621094 L 1394.089844 1445.628906 L 1394.378906 1446.191406 L 1394.671875 1446.738281 L 1394.859375 1447.101562 L 1394.960938 1447.308594 L 1395.25 1447.871094 L 1395.539062 1448.429688 L 1395.621094 1448.578125 L 1395.839844 1448.988281 L 1396.128906 1449.550781 L 1396.390625 1450.050781 L 1396.421875 1450.109375 L 1396.710938 1450.671875 L 1397.011719 1451.230469 L 1397.160156 1451.519531 L 1397.289062 1451.789062 L 1397.589844 1452.351562 L 1397.878906 1452.910156 L 1397.921875 1452.988281 L 1398.171875 1453.46875 L 1398.460938 1454.03125 L 1398.679688 1454.460938 L 1398.75 1454.578125 L 1399.03125 1455.140625 L 1399.320312 1455.699219 L 1399.441406 1455.929688 L 1399.609375 1456.261719 L 1399.898438 1456.820312 L 1400.179688 1457.371094 L 1400.191406 1457.390625 L 1400.460938 1457.929688 L 1400.75 1458.480469 L 1400.929688 1458.839844 L 1401.308594 1459.589844 L 1401.589844 1460.148438 L 1401.671875 1460.300781 L 1401.859375 1460.699219 L 1402.140625 1461.25 L 1402.390625 1461.75 L 1402.410156 1461.800781 L 1402.691406 1462.351562 L 1402.960938 1462.898438 L 1403.101562 1463.191406 L 1404.019531 1465.089844 L 1404.28125 1465.640625 L 1404.488281 1466.070312 L 1404.539062 1466.179688 L 1404.789062 1466.71875 L 1405.039062 1467.261719 L 1405.300781 1467.800781 L 1405.539062 1468.351562 L 1405.789062 1468.890625 L 1405.800781 1468.910156 L 1406.03125 1469.421875 L 1483.53125 1469.421875 L 1483.949219 1468.460938 L 1484.109375 1468.078125 L 1484.621094 1466.910156 L 1484.691406 1466.738281 L 1485.269531 1465.398438 L 1485.28125 1465.371094 L 1485.851562 1464.058594 L 1485.949219 1463.839844 L 1486.421875 1462.71875 L 1486.609375 1462.300781 L 1487 1461.398438 L 1487.269531 1460.78125 L 1487.578125 1460.070312 L 1487.941406 1459.261719 L 1488.148438 1458.761719 L 1488.601562 1457.75 L 1488.730469 1457.441406 L 1489.261719 1456.238281 L 1489.308594 1456.140625 L 1489.890625 1454.851562 L 1489.929688 1454.761719 L 1490.46875 1453.570312 L 1490.601562 1453.289062 L 1491.050781 1452.300781 L 1491.269531 1451.820312 L 1491.941406 1450.390625 L 1492.21875 1449.789062 L 1492.621094 1448.960938 L 1492.808594 1448.558594 L 1493.300781 1447.550781 L 1493.398438 1447.339844 L 1493.980469 1446.160156 L 1494 1446.128906 L 1494.601562 1444.949219 L 1494.679688 1444.800781 L 1495.210938 1443.78125 L 1495.378906 1443.460938 L 1495.808594 1442.628906 L 1496.078125 1442.140625 L 1496.429688 1441.5 L 1496.78125 1440.851562 L 1497.050781 1440.378906 L 1497.5 1439.589844 L 1497.671875 1439.289062 L 1498.21875 1438.351562 L 1498.300781 1438.21875 L 1498.941406 1437.179688 L 1498.949219 1437.148438 L 1499.578125 1436.148438 L 1499.691406 1435.96875 L 1500.230469 1435.160156 L 1500.449219 1434.828125 L 1500.480469 1434.789062 L 1501.199219 1433.738281 L 1501.210938 1433.710938 L 1501.878906 1432.78125 L 1502.03125 1432.570312 C 1502.53125 1431.898438 1503.03125 1431.25 1503.539062 1430.628906 L 1503.578125 1430.570312 L 1504.339844 1429.671875 L 1504.980469 1428.941406 L 1505.148438 1428.75 L 1505.699219 1428.171875 L 1505.96875 1427.890625 L 1506.109375 1427.761719 L 1506.890625 1426.980469 C 1507.410156 1426.488281 1507.941406 1426.019531 1508.480469 1425.578125 L 1508.53125 1425.539062 L 1508.648438 1425.441406 L 1509.410156 1424.851562 L 1509.421875 1424.839844 L 1510.199219 1424.28125 L 1510.300781 1424.210938 L 1510.550781 1424.050781 L 1511.128906 1423.671875 L 1511.449219 1423.480469 L 1511.941406 1423.199219 L 1512.378906 1422.960938 L 1512.859375 1422.71875 L 1513.230469 1422.539062 L 1513.800781 1422.28125 L 1514.121094 1422.140625 C 1514.71875 1421.898438 1515.339844 1421.679688 1515.96875 1421.5 L 1516 1421.488281 L 1516.839844 1421.28125 L 1516.890625 1421.269531 L 1517.300781 1421.191406 L 1517.960938 1421.058594 L 1518.191406 1421.03125 L 1518.890625 1420.941406 L 1519.339844 1420.898438 L 1519.890625 1420.871094 L 1520.300781 1420.851562 L 1520.910156 1420.851562 L 1521.378906 1420.859375 L 1521.449219 1420.859375 L 1522.359375 1420.910156 L 1522.410156 1420.921875 L 1523.390625 1421.03125 L 1523.488281 1421.039062 L 1523.789062 1421.101562 L 1524.519531 1421.21875 L 1524.910156 1421.308594 L 1525.660156 1421.480469 L 1526.03125 1421.578125 L 1526.761719 1421.789062 L 1527.25 1421.941406 L 1527.949219 1422.179688 L 1528.351562 1422.320312 L 1529.109375 1422.609375 L 1529.480469 1422.761719 L 1529.640625 1422.828125 L 1530.738281 1423.328125 L 1531.871094 1423.890625 L 1532.078125 1424 L 1533.128906 1424.589844 L 1533.171875 1424.601562 L 1533.859375 1425.03125 L 1534.050781 1425.148438 L 1534.390625 1425.371094 L 1535.238281 1425.960938 L 1535.289062 1426 L 1535.308594 1426.011719 L 1536.171875 1426.691406 L 1536.308594 1426.800781 L 1537.058594 1427.441406 L 1537.128906 1427.511719 L 1537.179688 1427.550781 L 1537.820312 1428.179688 L 1538.019531 1428.378906 L 1538.621094 1429.039062 L 1538.699219 1429.128906 L 1538.78125 1429.21875 L 1539.289062 1429.859375 L 1539.441406 1430.050781 L 1539.929688 1430.75 L 1540.121094 1431.039062 L 1540.53125 1431.699219 L 1540.578125 1431.78125 L 1541.050781 1432.660156 L 1541.089844 1432.75 L 1541.390625 1433.390625 L 1541.550781 1433.769531 L 1541.558594 1433.78125 L 1541.808594 1434.410156 L 1541.839844 1434.488281 L 1541.941406 1434.78125 L 1542.171875 1435.488281 L 1542.199219 1435.601562 L 1542.238281 1435.71875 L 1542.410156 1436.390625 L 1542.441406 1436.480469 L 1542.511719 1436.851562 L 1542.628906 1437.378906 L 1542.699219 1437.761719 L 1542.808594 1438.460938 L 1542.839844 1438.730469 L 1542.859375 1438.898438 C 1542.929688 1439.460938 1542.96875 1440.03125 1543 1440.609375 L 1543.011719 1440.921875 L 1543.019531 1441.339844 L 1543.019531 1442.089844 L 1543 1442.828125 L 1543 1442.949219 L 1542.96875 1443.441406 L 1542.960938 1443.601562 L 1542.898438 1444.351562 L 1542.898438 1444.359375 L 1542.828125 1445.140625 L 1542.78125 1445.53125 L 1542.761719 1445.660156 L 1542.621094 1446.710938 L 1542.609375 1446.730469 L 1542.480469 1447.511719 L 1542.410156 1447.941406 L 1542.339844 1448.308594 L 1542.171875 1449.121094 L 1542.160156 1449.179688 L 1541.988281 1449.941406 L 1541.871094 1450.429688 L 1541.789062 1450.769531 L 1541.578125 1451.601562 L 1541.550781 1451.691406 L 1541.351562 1452.441406 L 1541.199219 1452.96875 L 1541.101562 1453.289062 L 1540.839844 1454.140625 L 1540.800781 1454.269531 L 1540.570312 1455 L 1540.378906 1455.578125 L 1540.28125 1455.859375 L 1539.980469 1456.730469 L 1539.921875 1456.898438 L 1539.671875 1457.601562 L 1539.441406 1458.230469 L 1539.351562 1458.488281 L 1539.011719 1459.371094 L 1538.929688 1459.578125 L 1538.660156 1460.261719 L 1538.390625 1460.941406 L 1538.300781 1461.160156 L 1537.929688 1462.058594 L 1537.828125 1462.308594 L 1537.550781 1462.960938 L 1537.238281 1463.691406 L 1537.160156 1463.871094 L 1536.761719 1464.789062 L 1536.628906 1465.078125 L 1536.351562 1465.710938 L 1536 1466.488281 L 1535.929688 1466.628906 L 1535.511719 1467.558594 L 1535.351562 1467.890625 L 1535.070312 1468.488281 L 1534.679688 1469.308594 L 1534.628906 1469.421875 L 1552.621094 1469.421875 C 1607.300781 1469.421875 1651.828125 1513.949219 1651.828125 1568.628906 C 1651.828125 1623.320312 1607.300781 1667.699219 1552.621094 1667.699219 "/>
<path fill-rule="evenodd" fill="rgb(100%, 100%, 100%)" fill-opacity="1" d="M 1159.660156 1110.199219 C 1154.96875 1110.199219 1150.441406 1108.800781 1146.53125 1105.988281 L 881.691406 914.890625 C 867.855469 904.839844 869.820312 883.601562 885.285156 876.300781 L 972.003906 835.828125 L 923.566406 691.769531 C 916.703125 671.441406 940.289062 653.628906 957.941406 666.140625 L 1185.601562 828.328125 C 1199.660156 838.359375 1197.640625 859.75 1182.160156 866.921875 L 1113.71875 899.109375 L 1180.75 1079.878906 C 1186.210938 1094.550781 1175.171875 1110.199219 1159.660156 1110.199219 "/>
<path fill-rule="evenodd" fill="rgb(100%, 100%, 100%)" fill-opacity="1" d="M 1807.929688 1110.199219 C 1792.578125 1110.199219 1781.371094 1094.730469 1786.839844 1079.890625 L 1853.871094 899.109375 L 1785.429688 866.921875 C 1769.929688 859.570312 1767.898438 838.210938 1781.988281 828.328125 L 2009.648438 666.140625 C 2027.25 653.660156 2050.890625 671.269531 2044.019531 691.769531 L 1995.589844 835.828125 L 2082.308594 876.300781 C 2098.230469 883.820312 2099.328125 905.128906 2085.898438 914.890625 L 1821.058594 1105.988281 C 1817.148438 1108.800781 1812.460938 1110.199219 1807.929688 1110.199219 "/>
<path fill-rule="evenodd" fill="rgb(100%, 100%, 100%)" fill-opacity="1" d="M 1547.621094 1022.078125 C 1538.871094 1022.078125 1530.898438 1017.078125 1527.148438 1008.960938 L 1446.691406 833.640625 L 1375.441406 859.269531 C 1358.988281 865.140625 1342.878906 850.980469 1345.601562 834.429688 L 1392.160156 558.800781 C 1395.691406 537.378906 1424.761719 533.039062 1434.5 552.390625 L 1502.148438 688.488281 L 1592.148438 655.828125 C 1608.328125 650.03125 1624.699219 663.519531 1622 680.519531 L 1569.808594 1003.019531 C 1568.03125 1014.101562 1558.140625 1022.078125 1547.621094 1022.078125 "/>
</svg>
